<svg width="414" height="78" viewBox="0 0 414 78" fill="none" xmlns="http://www.w3.org/2000/svg">
<path d="M96.2782 55.1428L85.6132 39.7978L90.3382 36.8728L102.893 55.1428H96.2782ZM75.4432 55.1428V23.6428H81.2032V55.1428H75.4432ZM79.4482 41.8678V36.8278H90.0682V41.8678H79.4482ZM90.8782 40.0678L85.5232 39.3478L96.2782 23.6428H102.488L90.8782 40.0678ZM121.401 55.5928C118.941 55.5928 116.676 55.1878 114.606 54.3778C112.536 53.5678 110.736 52.4428 109.206 51.0028C107.676 49.5328 106.491 47.8228 105.651 45.8728C104.811 43.8928 104.391 41.7328 104.391 39.3928C104.391 37.0528 104.811 34.9078 105.651 32.9578C106.491 30.9778 107.676 29.2678 109.206 27.8278C110.736 26.3578 112.536 25.2178 114.606 24.4078C116.676 23.5978 118.926 23.1928 121.356 23.1928C123.816 23.1928 126.066 23.5978 128.106 24.4078C130.176 25.2178 131.976 26.3578 133.506 27.8278C135.036 29.2678 136.221 30.9778 137.061 32.9578C137.901 34.9078 138.321 37.0528 138.321 39.3928C138.321 41.7328 137.901 43.8928 137.061 45.8728C136.221 47.8528 135.036 49.5628 133.506 51.0028C131.976 52.4428 130.176 53.5678 128.106 54.3778C126.066 55.1878 123.831 55.5928 121.401 55.5928ZM121.356 50.4628C122.946 50.4628 124.416 50.1928 125.766 49.6528C127.116 49.1128 128.286 48.3478 129.276 47.3578C130.266 46.3378 131.031 45.1678 131.571 43.8478C132.141 42.4978 132.426 41.0128 132.426 39.3928C132.426 37.7728 132.141 36.3028 131.571 34.9828C131.031 33.6328 130.266 32.4628 129.276 31.4728C128.286 30.4528 127.116 29.6728 125.766 29.1328C124.416 28.5928 122.946 28.3228 121.356 28.3228C119.766 28.3228 118.296 28.5928 116.946 29.1328C115.626 29.6728 114.456 30.4528 113.436 31.4728C112.446 32.4628 111.666 33.6328 111.096 34.9828C110.556 36.3028 110.286 37.7728 110.286 39.3928C110.286 40.9828 110.556 42.4528 111.096 43.8028C111.666 45.1528 112.446 46.3378 113.436 47.3578C114.426 48.3478 115.596 49.1128 116.946 49.6528C118.296 50.1928 119.766 50.4628 121.356 50.4628ZM166.929 23.6428H172.779V55.1428H166.929V23.6428ZM150.639 55.1428H144.789V23.6428H150.639V55.1428ZM167.379 41.6428H150.144V36.6478H167.379V41.6428ZM188.23 55.1428V27.1528L189.625 28.5928H177.835V23.6428H204.475V28.5928H192.685L194.035 27.1528V55.1428H188.23ZM203.933 55.1428L218.108 23.6428H223.868L238.088 55.1428H231.968L219.773 26.7478H222.113L209.963 55.1428H203.933ZM210.458 47.8528L212.033 43.2628H229.043L230.618 47.8528H210.458ZM263.754 55.1428L253.089 39.7978L257.814 36.8728L270.369 55.1428H263.754ZM242.919 55.1428V23.6428H248.679V55.1428H242.919ZM246.924 41.8678V36.8278H257.544V41.8678H246.924ZM258.354 40.0678L252.999 39.3478L263.754 23.6428H269.964L258.354 40.0678ZM280.647 55.1428V27.1528L282.042 28.5928H270.252V23.6428H296.892V28.5928H285.102L286.452 27.1528V55.1428H280.647ZM316.472 34.3078C320.222 34.3078 323.117 35.1478 325.157 36.8278C327.197 38.5078 328.217 41.0278 328.217 44.3878C328.217 47.9278 327.092 50.6128 324.842 52.4428C322.622 54.2428 319.517 55.1428 315.527 55.1428H301.982V23.6428H307.742V34.3078H316.472ZM315.257 50.6428C317.507 50.6428 319.247 50.1178 320.477 49.0678C321.737 48.0178 322.367 46.4878 322.367 44.4778C322.367 42.4978 321.752 41.0578 320.522 40.1578C319.292 39.2278 317.537 38.7628 315.257 38.7628H307.742V50.6428H315.257ZM332.762 55.1428V23.6428H338.522V55.1428H332.762Z" fill="black"/>
<rect x="7" y="74.9611" width="100.242" height="3.03896" fill="black"/>
<rect x="307" width="100.242" height="3.03896" fill="black"/>
</svg>
