<svg width="414" height="78" viewBox="0 0 414 78" fill="none" xmlns="http://www.w3.org/2000/svg">
<path d="M76.3576 41.4628V36.8278H92.6026V41.4628H76.3576ZM80.4526 23.1928C82.7626 23.1928 84.8926 23.5978 86.8426 24.4078C88.7926 25.1878 90.4876 26.3128 91.9276 27.7828C93.3976 29.2228 94.5226 30.9328 95.3026 32.9128C96.1126 34.8928 96.5176 37.0528 96.5176 39.3928C96.5176 41.7328 96.1126 43.8928 95.3026 45.8728C94.5226 47.8528 93.3976 49.5778 91.9276 51.0478C90.4876 52.4878 88.7926 53.6128 86.8426 54.4228C84.8926 55.2028 82.7626 55.5928 80.4526 55.5928C77.7826 55.5928 75.3526 55.1428 73.1626 54.2428C71.0026 53.3428 69.2026 52.0378 67.7626 50.3278L71.4526 46.7278C72.6226 47.9878 73.9276 48.9328 75.3676 49.5628C76.8376 50.1628 78.4276 50.4628 80.1376 50.4628C81.6376 50.4628 83.0326 50.1928 84.3226 49.6528C85.6126 49.0828 86.7226 48.3178 87.6526 47.3578C88.5826 46.3678 89.3026 45.1978 89.8126 43.8478C90.3226 42.4978 90.5776 41.0128 90.5776 39.3928C90.5776 37.7728 90.3226 36.2878 89.8126 34.9378C89.3026 33.5878 88.5826 32.4328 87.6526 31.4728C86.7226 30.4828 85.6126 29.7178 84.3226 29.1778C83.0326 28.6078 81.6376 28.3228 80.1376 28.3228C78.4276 28.3228 76.8376 28.6378 75.3676 29.2678C73.9276 29.8678 72.6226 30.7978 71.4526 32.0578L67.7626 28.4578C69.2026 26.7478 71.0026 25.4428 73.1626 24.5428C75.3526 23.6428 77.7826 23.1928 80.4526 23.1928ZM101.577 55.5928C101.067 55.5928 100.557 55.5478 100.047 55.4578C99.537 55.3678 98.982 55.2628 98.382 55.1428L98.787 50.0578C99.207 50.1778 99.657 50.2378 100.137 50.2378C101.397 50.2378 102.402 49.7278 103.152 48.7078C103.902 47.6578 104.442 46.1278 104.772 44.1178C105.102 42.1078 105.327 39.6328 105.447 36.6928L105.897 23.6428H129.072V55.1428H123.312V27.1528L124.662 28.5928H109.677L110.937 27.1078L110.622 36.4678C110.532 39.5878 110.322 42.3328 109.992 44.7028C109.662 47.0728 109.152 49.0678 108.462 50.6878C107.802 52.2778 106.917 53.4928 105.807 54.3328C104.697 55.1728 103.287 55.5928 101.577 55.5928ZM143.333 36.7378H158.993V41.5528H143.333V36.7378ZM143.783 50.2378H161.558V55.1428H137.933V23.6428H160.928V28.5478H143.783V50.2378ZM168.125 55.1428V23.6428H172.895L186.71 46.6378H184.145L197.735 23.6428H202.505L202.595 55.1428H197.015L196.97 32.3278H198.14L186.62 51.5428H184.01L172.31 32.3278H173.66V55.1428H168.125ZM216.81 36.7378H232.47V41.5528H216.81V36.7378ZM217.26 50.2378H235.035V55.1428H211.41V23.6428H234.405V28.5478H217.26V50.2378ZM263.696 23.6428H269.546V55.1428H263.696V23.6428ZM247.406 55.1428H241.556V23.6428H247.406V55.1428ZM264.146 41.6428H246.911V36.6478H264.146V41.6428ZM284.998 55.1428V27.1528L286.393 28.5928H274.603V23.6428H301.243V28.5928H289.453L290.803 27.1528V55.1428H284.998ZM320.823 34.3078C324.573 34.3078 327.468 35.1478 329.508 36.8278C331.548 38.5078 332.568 41.0278 332.568 44.3878C332.568 47.9278 331.443 50.6128 329.193 52.4428C326.973 54.2428 323.868 55.1428 319.878 55.1428H306.333V23.6428H312.093V34.3078H320.823ZM319.608 50.6428C321.858 50.6428 323.598 50.1178 324.828 49.0678C326.088 48.0178 326.718 46.4878 326.718 44.4778C326.718 42.4978 326.103 41.0578 324.873 40.1578C323.643 39.2278 321.888 38.7628 319.608 38.7628H312.093V50.6428H319.608ZM337.113 55.1428V23.6428H342.873V55.1428H337.113Z" fill="black"/>
<rect x="7" y="74.9611" width="100.242" height="3.03896" fill="black"/>
<rect x="307" width="100.242" height="3.03896" fill="black"/>
</svg>
