<svg width="25" height="25" viewBox="0 0 25 25" fill="none" xmlns="http://www.w3.org/2000/svg">
<path d="M6.58895 13.315H9.32935V24.5968C9.32935 24.8195 9.50983 25 9.73258 25H14.379C14.6018 25 14.7822 24.8195 14.7822 24.5968V13.3682H17.9325C18.1373 13.3682 18.3098 13.2144 18.3332 13.011L18.8117 8.85758C18.8248 8.7433 18.7885 8.62887 18.7122 8.54315C18.6355 8.45733 18.526 8.40823 18.4112 8.40823H14.7824V5.80468C14.7824 5.01983 15.205 4.62185 16.0385 4.62185C16.1573 4.62185 18.4112 4.62185 18.4112 4.62185C18.6338 4.62185 18.8143 4.44128 18.8143 4.21863V0.40621C18.8143 0.183468 18.6338 0.00298387 18.4112 0.00298387H15.1414C15.1183 0.00185483 15.0671 0 14.9916 0C14.4243 0 12.4522 0.111371 10.8945 1.54443C9.16855 3.1325 9.40846 5.03395 9.4658 5.36363V8.40815H6.58895C6.3662 8.40815 6.18571 8.58863 6.18571 8.81137V12.9117C6.18571 13.1344 6.3662 13.315 6.58895 13.315Z" fill="white"/>
</svg>
