<svg width="25" height="25" viewBox="0 0 25 25" fill="none" xmlns="http://www.w3.org/2000/svg">
<g clip-path="url(#clip0_1_39)">
<path d="M3.21 0.00231934H21.7915C23.5568 0.00231934 25 1.44599 25 3.21131V21.7928C25 23.5576 23.5568 25.0003 21.7915 25.0003H3.21C1.44467 25.0003 0 23.5576 0 21.7928V3.21131C0 1.44599 1.44467 0.00231934 3.21 0.00231934ZM18.2122 2.77873C17.5923 2.77873 17.0868 3.28631 17.0868 3.90581V6.59865C17.0868 7.2184 17.5923 7.72481 18.2122 7.72481H21.0375C21.6563 7.72481 22.1628 7.2184 22.1628 6.59865V3.90581C22.1628 3.28631 21.6563 2.77873 21.0375 2.77873H18.2122ZM22.1737 10.5736H19.974C20.1827 11.2549 20.2957 11.9733 20.2957 12.7202C20.2957 16.8771 16.8152 20.2486 12.5235 20.2486C8.23292 20.2486 4.75233 16.8771 4.75233 12.7202C4.75233 11.9733 4.8665 11.2549 5.07408 10.5736H2.77917V21.1346C2.77917 21.6816 3.22575 22.1265 3.77217 22.1265H21.1812C21.728 22.1265 22.1737 21.6816 22.1737 21.1346V10.5736ZM12.5236 7.58281C9.75192 7.58281 7.50358 9.76015 7.50358 12.4485C7.50358 15.1341 9.75192 17.3131 12.5236 17.3131C15.2967 17.3131 17.5452 15.1341 17.5452 12.4485C17.5452 9.76006 15.2967 7.58281 12.5236 7.58281Z" fill="white"/>
</g>
<defs>
<clipPath id="clip0_1_39">
<rect width="25" height="25" fill="white"/>
</clipPath>
</defs>
</svg>
