<svg width="129" height="68" viewBox="0 0 129 68" fill="none" xmlns="http://www.w3.org/2000/svg">
<path d="M127.827 2.33679H1.17273C0.525048 2.33679 0 2.8599 0 3.50518C0 4.15046 0.525048 4.67356 1.17273 4.67356H127.827C128.475 4.67356 129 4.15046 129 3.50518C129 2.8599 128.475 2.33679 127.827 2.33679Z" fill="white"/>
<path d="M127.827 65.6633H1.17273C0.525048 65.6633 0 66.1864 0 66.8317C0 67.477 0.525048 68.0001 1.17273 68.0001H127.827C128.475 68.0001 129 67.477 129 66.8317C129 66.1864 128.475 65.6633 127.827 65.6633Z" fill="white"/>
<path d="M5.91054 38.5567H3.5041V10.5015H5.91054V38.5567ZM28.7783 38.5567H26.5829V24.8025C26.5829 22.9518 26.1607 21.6479 25.3164 20.8907C24.472 20.1056 23.2477 19.713 21.6434 19.713C20.3769 19.713 19.1244 20.0495 17.886 20.7225C16.6476 21.3955 15.6906 22.2227 15.0151 23.2041V38.5567H12.8198V18.2408H15.0151V21.3114C15.8314 20.358 16.915 19.5307 18.2659 18.8297C19.6169 18.1006 20.982 17.7361 22.3611 17.7361C26.6392 17.7361 28.7783 19.9373 28.7783 24.3398V38.5567Z" fill="white"/>
<path d="M33.9207 58.6759C30.6276 58.6759 28.0101 57.6101 26.0681 55.4789L27.3768 53.8385C28.0805 54.7078 29.0093 55.4229 30.1632 55.9837C31.3172 56.5445 32.5838 56.8249 33.9629 56.8249C35.6235 56.8249 36.9463 56.4464 37.9314 55.6892C38.9165 54.9041 39.409 53.9086 39.409 52.7029C39.409 51.6934 38.9587 50.8942 38.058 50.3053C37.1855 49.6884 36.116 49.2398 34.8495 48.9593C33.6111 48.6509 32.3586 48.3284 31.092 47.9919C29.8255 47.6274 28.7419 47.0385 27.8412 46.2253C26.9687 45.4121 26.5325 44.3325 26.5325 42.9866C26.5325 41.3882 27.1798 40.0563 28.4745 38.9907C29.7974 37.8971 31.5705 37.3503 33.794 37.3503C36.8619 37.3503 39.2964 38.3457 41.0978 40.3367L39.8734 41.893C38.5506 40.0983 36.5241 39.201 33.794 39.201C32.246 39.201 31.0076 39.5515 30.0788 40.2525C29.15 40.9536 28.6856 41.8369 28.6856 42.9024C28.6856 43.8278 29.1219 44.5569 29.9944 45.0897C30.895 45.6224 31.9646 46.0431 33.203 46.3515C34.4695 46.6319 35.736 46.9544 37.0026 47.3189C38.2691 47.6835 39.3387 48.3144 40.2112 49.2117C41.1118 50.109 41.5622 51.2728 41.5622 52.7029C41.5622 54.4414 40.9007 55.8715 39.5779 56.9932C38.2551 58.1148 36.3693 58.6759 33.9207 58.6759ZM51.6516 58.6759C48.9778 58.6759 47.6409 57.2035 47.6409 54.2591V39.7899H44.2634V37.855H47.6409V32.3029H49.8784V37.855H54.0158V39.7899H49.8784V53.9226C49.8784 55.7734 50.5821 56.6987 51.9893 56.6987C52.9181 56.6987 53.6781 56.3763 54.2691 55.7313L55.1135 57.4138C54.2128 58.255 53.0589 58.6759 51.6516 58.6759ZM67.4576 58.6759C64.5305 58.6759 62.1663 57.6521 60.365 55.6051C58.5636 53.5581 57.663 51.0204 57.663 47.9919C57.663 44.9635 58.5636 42.4398 60.365 40.4208C62.1663 38.3738 64.5305 37.3503 67.4576 37.3503C70.4129 37.3503 72.7912 38.3738 74.5925 40.4208C76.3938 42.4398 77.2944 44.9635 77.2944 47.9919C77.2944 51.0204 76.3938 53.5581 74.5925 55.6051C72.7912 57.6521 70.4129 58.6759 67.4576 58.6759ZM67.4576 56.6987C69.7655 56.6987 71.5809 55.8575 72.9038 54.175C74.2547 52.4645 74.9302 50.4035 74.9302 47.9919C74.9302 45.6084 74.2547 43.5754 72.9038 41.893C71.5809 40.1824 69.7655 39.3272 67.4576 39.3272C65.1778 39.3272 63.3625 40.1824 62.0115 41.893C60.6886 43.5754 60.0272 45.6084 60.0272 47.9919C60.0272 50.3754 60.6886 52.4224 62.0115 54.133C63.3625 55.8435 65.1778 56.6987 67.4576 56.6987ZM98.9223 58.1711H96.727V44.4167C96.727 42.5659 96.3048 41.262 95.4605 40.5049C94.6161 39.7198 93.3918 39.3272 91.7875 39.3272C90.5209 39.3272 89.2685 39.6637 88.0301 40.3367C86.7917 41.0097 85.8347 41.8369 85.1592 42.8183V58.1711H82.9639V37.855H85.1592V40.9255C85.9754 39.9721 87.059 39.1449 88.41 38.4439C89.761 37.7148 91.1261 37.3503 92.5052 37.3503C96.7833 37.3503 98.9223 39.5515 98.9223 43.954V58.1711ZM114.798 58.6759C111.815 58.6759 109.366 57.6802 107.452 55.6892C105.538 53.6983 104.581 51.1325 104.581 47.9919C104.581 45.0196 105.51 42.5099 107.368 40.4629C109.253 38.3878 111.604 37.3503 114.418 37.3503C117.401 37.3503 119.752 38.3878 121.468 40.4629C123.185 42.5099 124.044 45.0616 124.044 48.1181V48.707H106.988C107.1 51.0064 107.874 52.9272 109.31 54.4695C110.745 56.0117 112.631 56.7831 114.967 56.7831C117.669 56.7831 119.892 55.8435 121.637 53.9647L122.777 55.395C120.666 57.5823 118.007 58.6759 114.798 58.6759ZM121.806 46.9824C121.778 45.0196 121.117 43.2389 119.822 41.6406C118.555 40.0422 116.74 39.2431 114.376 39.2431C112.152 39.2431 110.379 40.0422 109.056 41.6406C107.762 43.2109 107.072 44.9915 106.988 46.9824H121.806Z" fill="white"/>
<path d="M26.6209 34.1168H28.7318L28.8491 41.3608L26.5271 42.9965L26.6209 34.1168Z" fill="white"/>
</svg>
