<svg width="414" height="78" viewBox="0 0 414 78" fill="none" xmlns="http://www.w3.org/2000/svg">
<path d="M27.3806 23.6428H33.2306V55.1428H27.3806V23.6428ZM11.0906 55.1428H5.24057V23.6428H11.0906V55.1428ZM27.8306 41.6428H10.5956V36.6478H27.8306V41.6428ZM38.0617 55.1428L52.2367 23.6428H57.9967L72.2167 55.1428H66.0967L53.9017 26.7478H56.2417L44.0917 55.1428H38.0617ZM44.5867 47.8528L46.1617 43.2628H63.1717L64.7467 47.8528H44.5867ZM95.7672 50.1928L94.4622 51.6328V23.6428H100.222V51.6328L98.8272 50.1928H113.182L111.787 51.6328V23.6428H117.547V55.1428H77.0922V23.6428H82.8522V51.6328L81.5022 50.1928H95.7672ZM126.443 55.1428V23.6428H132.203V46.0078L149.123 23.6428H154.568V55.1428H148.808V32.8228L131.888 55.1428H126.443ZM175.881 55.1428V23.6428H203.736V55.1428H197.976V27.1528L199.326 28.5928H180.291L181.641 27.1528V55.1428H175.881ZM212.618 55.1428V23.6428H225.578C228.368 23.6428 230.753 24.0928 232.733 24.9928C234.743 25.8928 236.288 27.1828 237.368 28.8628C238.448 30.5428 238.988 32.5378 238.988 34.8478C238.988 37.1578 238.448 39.1528 237.368 40.8328C236.288 42.5128 234.743 43.8028 232.733 44.7028C230.753 45.6028 228.368 46.0528 225.578 46.0528H215.858L218.468 43.3078V55.1428H212.618ZM218.468 43.9378L215.858 41.1028H225.308C227.888 41.1028 229.823 40.5628 231.113 39.4828C232.433 38.3728 233.093 36.8278 233.093 34.8478C233.093 32.8378 232.433 31.2928 231.113 30.2128C229.823 29.1328 227.888 28.5928 225.308 28.5928H215.858L218.468 25.7128V43.9378ZM259.587 55.5928C257.127 55.5928 254.862 55.1878 252.792 54.3778C250.722 53.5678 248.922 52.4428 247.392 51.0028C245.862 49.5328 244.677 47.8228 243.837 45.8728C242.997 43.8928 242.577 41.7328 242.577 39.3928C242.577 37.0528 242.997 34.9078 243.837 32.9578C244.677 30.9778 245.862 29.2678 247.392 27.8278C248.922 26.3578 250.722 25.2178 252.792 24.4078C254.862 23.5978 257.112 23.1928 259.542 23.1928C262.002 23.1928 264.252 23.5978 266.292 24.4078C268.362 25.2178 270.162 26.3578 271.692 27.8278C273.222 29.2678 274.407 30.9778 275.247 32.9578C276.087 34.9078 276.507 37.0528 276.507 39.3928C276.507 41.7328 276.087 43.8928 275.247 45.8728C274.407 47.8528 273.222 49.5628 271.692 51.0028C270.162 52.4428 268.362 53.5678 266.292 54.3778C264.252 55.1878 262.017 55.5928 259.587 55.5928ZM259.542 50.4628C261.132 50.4628 262.602 50.1928 263.952 49.6528C265.302 49.1128 266.472 48.3478 267.462 47.3578C268.452 46.3378 269.217 45.1678 269.757 43.8478C270.327 42.4978 270.612 41.0128 270.612 39.3928C270.612 37.7728 270.327 36.3028 269.757 34.9828C269.217 33.6328 268.452 32.4628 267.462 31.4728C266.472 30.4528 265.302 29.6728 263.952 29.1328C262.602 28.5928 261.132 28.3228 259.542 28.3228C257.952 28.3228 256.482 28.5928 255.132 29.1328C253.812 29.6728 252.642 30.4528 251.622 31.4728C250.632 32.4628 249.852 33.6328 249.282 34.9828C248.742 36.3028 248.472 37.7728 248.472 39.3928C248.472 40.9828 248.742 42.4528 249.282 43.8028C249.852 45.1528 250.632 46.3378 251.622 47.3578C252.612 48.3478 253.782 49.1128 255.132 49.6528C256.482 50.1928 257.952 50.4628 259.542 50.4628ZM288.375 36.7378H304.035V41.5528H288.375V36.7378ZM288.825 50.2378H306.6V55.1428H282.975V23.6428H305.97V28.5478H288.825V50.2378ZM333.956 55.1428L323.291 39.7978L328.016 36.8728L340.571 55.1428H333.956ZM313.121 55.1428V23.6428H318.881V55.1428H313.121ZM317.126 41.8678V36.8278H327.746V41.8678H317.126ZM328.556 40.0678L323.201 39.3478L333.956 23.6428H340.166L328.556 40.0678ZM350.85 55.1428V27.1528L352.245 28.5928H340.455V23.6428H367.095V28.5928H355.305L356.655 27.1528V55.1428H350.85ZM386.675 34.3078C390.425 34.3078 393.32 35.1478 395.36 36.8278C397.4 38.5078 398.42 41.0278 398.42 44.3878C398.42 47.9278 397.295 50.6128 395.045 52.4428C392.825 54.2428 389.72 55.1428 385.73 55.1428H372.185V23.6428H377.945V34.3078H386.675ZM385.46 50.6428C387.71 50.6428 389.45 50.1178 390.68 49.0678C391.94 48.0178 392.57 46.4878 392.57 44.4778C392.57 42.4978 391.955 41.0578 390.725 40.1578C389.495 39.2278 387.74 38.7628 385.46 38.7628H377.945V50.6428H385.46ZM402.965 55.1428V23.6428H408.725V55.1428H402.965Z" fill="black"/>
<rect x="5" y="74.9611" width="100.242" height="3.03896" fill="black"/>
<rect x="309" width="100.242" height="3.03896" fill="black"/>
</svg>
