<svg width="414" height="78" viewBox="0 0 414 78" fill="none" xmlns="http://www.w3.org/2000/svg">
<path d="M43.8476 55.1428V23.6428H57.9326C61.4726 23.6428 64.2326 24.3478 66.2126 25.7578C68.1926 27.1378 69.1826 29.1328 69.1826 31.7428C69.1826 34.3228 68.2376 36.3178 66.3476 37.7278C64.4576 39.1078 61.9676 39.7978 58.8776 39.7978L59.6876 38.1778C63.1976 38.1778 65.9126 38.8828 67.8326 40.2928C69.7526 41.7028 70.7126 43.7428 70.7126 46.4128C70.7126 49.1428 69.7076 51.2878 67.6976 52.8478C65.6876 54.3778 62.7176 55.1428 58.7876 55.1428H43.8476ZM49.6076 50.6428H58.6076C60.6476 50.6428 62.1926 50.2678 63.2426 49.5178C64.2926 48.7378 64.8176 47.5528 64.8176 45.9628C64.8176 44.3728 64.2926 43.2178 63.2426 42.4978C62.1926 41.7478 60.6476 41.3728 58.6076 41.3728H49.6076V50.6428ZM49.6076 37.0978H57.4376C59.3276 37.0978 60.7676 36.7228 61.7576 35.9728C62.7476 35.1928 63.2426 34.0828 63.2426 32.6428C63.2426 31.1428 62.7476 30.0178 61.7576 29.2678C60.7676 28.5178 59.3276 28.1428 57.4376 28.1428H49.6076V37.0978ZM91.8668 55.5928C89.4668 55.5928 87.2318 55.2028 85.1618 54.4228C83.1218 53.6128 81.3368 52.4878 79.8068 51.0478C78.3068 49.5778 77.1368 47.8528 76.2968 45.8728C75.4568 43.8928 75.0368 41.7328 75.0368 39.3928C75.0368 37.0528 75.4568 34.8928 76.2968 32.9128C77.1368 30.9328 78.3218 29.2228 79.8518 27.7828C81.3818 26.3128 83.1668 25.1878 85.2068 24.4078C87.2468 23.5978 89.4818 23.1928 91.9118 23.1928C94.4918 23.1928 96.8468 23.6428 98.9768 24.5428C101.107 25.4128 102.907 26.7178 104.377 28.4578L100.597 32.0128C99.4568 30.7828 98.1818 29.8678 96.7718 29.2678C95.3618 28.6378 93.8318 28.3228 92.1818 28.3228C90.5318 28.3228 89.0168 28.5928 87.6368 29.1328C86.2868 29.6728 85.1018 30.4378 84.0818 31.4278C83.0918 32.4178 82.3118 33.5878 81.7418 34.9378C81.2018 36.2878 80.9318 37.7728 80.9318 39.3928C80.9318 41.0128 81.2018 42.4978 81.7418 43.8478C82.3118 45.1978 83.0918 46.3678 84.0818 47.3578C85.1018 48.3478 86.2868 49.1128 87.6368 49.6528C89.0168 50.1928 90.5318 50.4628 92.1818 50.4628C93.8318 50.4628 95.3618 50.1628 96.7718 49.5628C98.1818 48.9328 99.4568 47.9878 100.597 46.7278L104.377 50.3278C102.907 52.0378 101.107 53.3428 98.9768 54.2428C96.8468 55.1428 94.4768 55.5928 91.8668 55.5928ZM115.208 36.7378H130.868V41.5528H115.208V36.7378ZM115.658 50.2378H133.433V55.1428H109.808V23.6428H132.803V28.5478H115.658V50.2378ZM167.016 55.5928C164.556 55.5928 162.291 55.1878 160.221 54.3778C158.151 53.5678 156.351 52.4428 154.821 51.0028C153.291 49.5328 152.106 47.8228 151.266 45.8728C150.426 43.8928 150.006 41.7328 150.006 39.3928C150.006 37.0528 150.426 34.9078 151.266 32.9578C152.106 30.9778 153.291 29.2678 154.821 27.8278C156.351 26.3578 158.151 25.2178 160.221 24.4078C162.291 23.5978 164.541 23.1928 166.971 23.1928C169.431 23.1928 171.681 23.5978 173.721 24.4078C175.791 25.2178 177.591 26.3578 179.121 27.8278C180.651 29.2678 181.836 30.9778 182.676 32.9578C183.516 34.9078 183.936 37.0528 183.936 39.3928C183.936 41.7328 183.516 43.8928 182.676 45.8728C181.836 47.8528 180.651 49.5628 179.121 51.0028C177.591 52.4428 175.791 53.5678 173.721 54.3778C171.681 55.1878 169.446 55.5928 167.016 55.5928ZM166.971 50.4628C168.561 50.4628 170.031 50.1928 171.381 49.6528C172.731 49.1128 173.901 48.3478 174.891 47.3578C175.881 46.3378 176.646 45.1678 177.186 43.8478C177.756 42.4978 178.041 41.0128 178.041 39.3928C178.041 37.7728 177.756 36.3028 177.186 34.9828C176.646 33.6328 175.881 32.4628 174.891 31.4728C173.901 30.4528 172.731 29.6728 171.381 29.1328C170.031 28.5928 168.561 28.3228 166.971 28.3228C165.381 28.3228 163.911 28.5928 162.561 29.1328C161.241 29.6728 160.071 30.4528 159.051 31.4728C158.061 32.4628 157.281 33.6328 156.711 34.9828C156.171 36.3028 155.901 37.7728 155.901 39.3928C155.901 40.9828 156.171 42.4528 156.711 43.8028C157.281 45.1528 158.061 46.3378 159.051 47.3578C160.041 48.3478 161.211 49.1128 162.561 49.6528C163.911 50.1928 165.381 50.4628 166.971 50.4628ZM223.676 55.1428L213.011 39.7978L217.736 36.8728L230.291 55.1428H223.676ZM202.841 55.1428V23.6428H208.601V55.1428H202.841ZM206.846 41.8678V36.8278H217.466V41.8678H206.846ZM218.276 40.0678L212.921 39.3478L223.676 23.6428H229.886L218.276 40.0678ZM229.729 55.1428L243.904 23.6428H249.664L263.884 55.1428H257.764L245.569 26.7478H247.909L235.759 55.1428H229.729ZM236.254 47.8528L237.829 43.2628H254.839L256.414 47.8528H236.254ZM268.76 55.1428V23.6428H273.53L287.345 46.6378H284.78L298.37 23.6428H303.14L303.23 55.1428H297.65L297.605 32.3278H298.775L287.255 51.5428H284.645L272.945 32.3278H274.295V55.1428H268.76ZM334.185 23.6428H340.035V55.1428H334.185V23.6428ZM317.895 55.1428H312.045V23.6428H317.895V55.1428ZM334.635 41.6428H317.4V36.6478H334.635V41.6428ZM354.271 36.7378H369.931V41.5528H354.271V36.7378ZM354.721 50.2378H372.496V55.1428H348.871V23.6428H371.866V28.5478H354.721V50.2378Z" fill="black"/>
<rect x="7" y="74.9611" width="100.242" height="3.03896" fill="black"/>
<rect x="307" width="100.242" height="3.03896" fill="black"/>
</svg>
